<?xml version="1.0" encoding="UTF-8" standalone="no"?>
<!DOCTYPE svg PUBLIC "-//W3C//DTD SVG 1.1//EN"
 "http://www.w3.org/Graphics/SVG/1.1/DTD/svg11.dtd">
<!-- Generated by graphviz version 2.38.0 (20140413.2041)
 -->
<!-- Title: %3 Pages: 1 -->
<svg width="281pt" height="775pt"
 viewBox="0.00 0.00 281.00 775.00" xmlns="http://www.w3.org/2000/svg" xmlns:xlink="http://www.w3.org/1999/xlink">
<g id="graph0" class="graph" transform="scale(1 1) rotate(0) translate(4 771)">
<title>%3</title>
<polygon fill="white" stroke="none" points="-4,4 -4,-771 277,-771 277,4 -4,4"/>
<!-- T1 -->
<g id="node1" class="node"><title>T1</title>
<polygon fill="none" stroke="black" points="142,-586.5 142,-622.5 250,-622.5 250,-586.5 142,-586.5"/>
<text text-anchor="middle" x="196" y="-600.8" font-family="Times New Roman,serif" font-size="14.00">T1</text>
</g>
<!-- S2 -->
<g id="node4" class="node"><title>S2</title>
<ellipse fill="none" stroke="black" cx="155" cy="-496" rx="54" ry="54"/>
<text text-anchor="middle" x="155" y="-492.3" font-family="Times New Roman,serif" font-size="14.00">S2</text>
</g>
<!-- T1&#45;&gt;S2 -->
<g id="edge3" class="edge"><title>T1&#45;&gt;S2</title>
<path fill="none" stroke="black" d="M189.413,-586.389C186.159,-577.937 182.019,-567.184 177.748,-556.089"/>
<polygon fill="black" stroke="black" points="181.005,-554.807 174.146,-546.732 174.472,-557.322 181.005,-554.807"/>
</g>
<!-- T3 -->
<g id="node2" class="node"><title>T3</title>
<polygon fill="none" stroke="black" points="101,-152.5 101,-188.5 209,-188.5 209,-152.5 101,-152.5"/>
<text text-anchor="middle" x="120.5" y="-166.8" font-family="Times New Roman,serif" font-size="14.00">T3</text>
<polyline fill="none" stroke="black" points="140,-152.5 140,-188.5 "/>
<text text-anchor="middle" x="155" y="-166.8" font-family="Times New Roman,serif" font-size="14.00">x</text>
<polyline fill="none" stroke="black" points="170,-152.5 170,-188.5 "/>
<text text-anchor="middle" x="189.5" y="-166.8" font-family="Times New Roman,serif" font-size="14.00">S2</text>
</g>
<!-- S4 -->
<g id="node7" class="node"><title>S4</title>
<ellipse fill="none" stroke="black" cx="54" cy="-58" rx="54" ry="54"/>
<text text-anchor="middle" x="54" y="-54.3" font-family="Times New Roman,serif" font-size="14.00">S4</text>
</g>
<!-- T3&#45;&gt;S4 -->
<g id="edge13" class="edge"><title>T3&#45;&gt;S4</title>
<path fill="none" stroke="black" d="M139.219,-152.234C127.864,-139.812 111.971,-122.424 96.9818,-106.025"/>
<polygon fill="black" stroke="black" points="99.5082,-103.601 90.178,-98.5809 94.3413,-108.324 99.5082,-103.601"/>
</g>
<!-- S3 -->
<g id="node8" class="node"><title>S3</title>
<ellipse fill="none" stroke="black" cx="196" cy="-58" rx="54" ry="54"/>
<ellipse fill="none" stroke="black" cx="196" cy="-58" rx="58" ry="58"/>
<text text-anchor="middle" x="196" y="-54.3" font-family="Times New Roman,serif" font-size="14.00">S3</text>
</g>
<!-- T3&#45;&gt;S3 -->
<g id="edge12" class="edge"><title>T3&#45;&gt;S3</title>
<path fill="none" stroke="black" d="M161.406,-152.234C164.472,-143.972 168.353,-133.512 172.399,-122.608"/>
<polygon fill="black" stroke="black" points="175.783,-123.548 175.98,-112.955 169.22,-121.113 175.783,-123.548"/>
</g>
<!-- T2 -->
<g id="node3" class="node"><title>T2</title>
<polygon fill="none" stroke="black" points="2,-369.5 2,-405.5 110,-405.5 110,-369.5 2,-369.5"/>
<text text-anchor="middle" x="17.5" y="-383.8" font-family="Times New Roman,serif" font-size="14.00">T2</text>
<polyline fill="none" stroke="black" points="33,-369.5 33,-405.5 "/>
<text text-anchor="middle" x="42.5" y="-383.8" font-family="Times New Roman,serif" font-size="14.00">t</text>
<polyline fill="none" stroke="black" points="52,-369.5 52,-405.5 "/>
<text text-anchor="middle" x="81" y="-383.8" font-family="Times New Roman,serif" font-size="14.00">&#45; 30min</text>
</g>
<!-- S1 -->
<g id="node5" class="node"><title>S1</title>
<ellipse fill="none" stroke="black" cx="56" cy="-279" rx="54" ry="54"/>
<text text-anchor="middle" x="56" y="-275.3" font-family="Times New Roman,serif" font-size="14.00">S1</text>
</g>
<!-- T2&#45;&gt;S1 -->
<g id="edge8" class="edge"><title>T2&#45;&gt;S1</title>
<path fill="none" stroke="black" d="M56,-369.389C56,-362.057 56,-352.995 56,-343.481"/>
<polygon fill="black" stroke="black" points="59.5001,-343.455 56,-333.455 52.5001,-343.455 59.5001,-343.455"/>
</g>
<!-- S2&#45;&gt;T2 -->
<g id="edge6" class="edge"><title>S2&#45;&gt;T2</title>
<path fill="none" stroke="black" d="M118.698,-455.948C105.354,-441.593 90.629,-425.752 78.8042,-413.032"/>
<polygon fill="black" stroke="black" points="81.2266,-410.497 71.8546,-405.556 76.0996,-415.263 81.2266,-410.497"/>
</g>
<!-- A2 -->
<g id="node13" class="node"><title>A2</title>
<polygon fill="none" stroke="black" stroke-width="0" points="128,-369.5 128,-405.5 182,-405.5 182,-369.5 128,-369.5"/>
<text text-anchor="middle" x="155" y="-383.8" font-family="Times New Roman,serif" font-size="14.00">A2</text>
</g>
<!-- S2&#45;&gt;A2 -->
<g id="edge4" class="edge"><title>S2&#45;&gt;A2</title>
<path fill="none" stroke="black" stroke-dasharray="1,5" d="M155,-441.75C155,-428.646 155,-415.541 155,-405.611"/>
</g>
<!-- S1&#45;&gt;T3 -->
<g id="edge10" class="edge"><title>S1&#45;&gt;T3</title>
<path fill="none" stroke="black" d="M92.3018,-238.948C105.646,-224.593 120.371,-208.752 132.196,-196.032"/>
<polygon fill="black" stroke="black" points="134.9,-198.263 139.145,-188.556 129.773,-193.497 134.9,-198.263"/>
</g>
<!-- A1 -->
<g id="node12" class="node"><title>A1</title>
<polygon fill="none" stroke="black" stroke-width="0" points="29,-152.5 29,-188.5 83,-188.5 83,-152.5 29,-152.5"/>
<text text-anchor="middle" x="56" y="-166.8" font-family="Times New Roman,serif" font-size="14.00">A1</text>
</g>
<!-- S1&#45;&gt;A1 -->
<g id="edge9" class="edge"><title>S1&#45;&gt;A1</title>
<path fill="none" stroke="black" stroke-dasharray="1,5" d="M56,-224.75C56,-211.646 56,-198.541 56,-188.611"/>
</g>
<!-- S5 -->
<g id="node6" class="node"><title>S5</title>
<ellipse fill="none" stroke="black" cx="147" cy="-713" rx="54" ry="54"/>
<text text-anchor="middle" x="147" y="-709.3" font-family="Times New Roman,serif" font-size="14.00">S5</text>
</g>
<!-- S5&#45;&gt;T1 -->
<g id="edge5" class="edge"><title>S5&#45;&gt;T1</title>
<path fill="none" stroke="black" d="M169.206,-663.736C174.296,-652.673 179.519,-641.322 183.986,-631.612"/>
<polygon fill="black" stroke="black" points="187.168,-633.07 188.168,-622.522 180.809,-630.144 187.168,-633.07"/>
</g>
<!-- S4&#45;&gt;S1 -->
<g id="edge14" class="edge"><title>S4&#45;&gt;S1</title>
<path fill="none" stroke="black" d="M30.8811,-106.82C21.7894,-131.239 14.6529,-161.521 20,-189 22.0475,-199.522 25.3382,-210.374 29.1184,-220.727"/>
<polygon fill="black" stroke="black" points="25.8538,-221.989 32.7059,-230.07 32.3887,-219.48 25.8538,-221.989"/>
</g>
<!-- S3&#45;&gt;T1 -->
<g id="edge1" class="edge"><title>S3&#45;&gt;T1</title>
<path fill="none" stroke="black" d="M212.087,-113.823C223.573,-157.802 237,-221.332 237,-278 237,-388.5 237,-388.5 237,-388.5 237,-460.773 236.134,-480.039 218,-550 215.682,-558.944 212.188,-568.369 208.664,-576.774"/>
<polygon fill="black" stroke="black" points="205.393,-575.519 204.581,-586.083 211.803,-578.331 205.393,-575.519"/>
</g>
<!-- E1 -->
<g id="node9" class="node"><title>E1</title>
<polygon fill="none" stroke="black" stroke-width="0" points="219,-695 219,-731 273,-731 273,-695 219,-695"/>
<text text-anchor="middle" x="246" y="-709.3" font-family="Times New Roman,serif" font-size="14.00">E1</text>
</g>
<!-- E1&#45;&gt;T1 -->
<g id="edge2" class="edge"><title>E1&#45;&gt;T1</title>
<path fill="none" stroke="black" d="M237.967,-694.889C229.948,-677.81 217.521,-651.339 208.268,-631.63"/>
<polygon fill="black" stroke="black" points="211.431,-630.133 204.013,-622.569 205.095,-633.108 211.431,-630.133"/>
</g>
<!-- E3 -->
<g id="node10" class="node"><title>E3</title>
<polygon fill="none" stroke="black" stroke-width="0" points="128,-261 128,-297 182,-297 182,-261 128,-261"/>
<text text-anchor="middle" x="155" y="-275.3" font-family="Times New Roman,serif" font-size="14.00">E3</text>
</g>
<!-- E3&#45;&gt;T3 -->
<g id="edge11" class="edge"><title>E3&#45;&gt;T3</title>
<path fill="none" stroke="black" d="M155,-260.889C155,-244.12 155,-218.299 155,-198.712"/>
<polygon fill="black" stroke="black" points="158.5,-198.569 155,-188.569 151.5,-198.569 158.5,-198.569"/>
</g>
<!-- E2 -->
<g id="node11" class="node"><title>E2</title>
<polygon fill="none" stroke="black" stroke-width="0" points="29,-478 29,-514 83,-514 83,-478 29,-478"/>
<text text-anchor="middle" x="56" y="-492.3" font-family="Times New Roman,serif" font-size="14.00">E2</text>
</g>
<!-- E2&#45;&gt;T2 -->
<g id="edge7" class="edge"><title>E2&#45;&gt;T2</title>
<path fill="none" stroke="black" d="M56,-477.889C56,-460.577 56,-433.615 56,-413.828"/>
<ellipse fill="none" stroke="black" cx="56" cy="-409.569" rx="4" ry="4"/>
</g>
</g>
</svg>
